{"title":"Attila - Payback Music Video [2011] FLV -BSAA.flv","uid":6754414,"size":15074287,"categoryP":"video","categoryS":"music_videos","magnet":"?xt=urn:btih:832bb0d55a70130575bf749d03cef1a56f035270&amp;dn=Attila+-+Payback+Music+Video+%5B2011%5D+FLV+-BSAA.flv&amp;tr=udp%3A%2F%2Ftracker.openbittorrent.com%3A80&amp;tr=udp%3A%2F%2Fopen.demonii.com%3A1337&amp;tr=udp%3A%2F%2Ftracker.coppersurfer.tk%3A6969&amp;tr=udp%3A%2F%2Fexodus.desync.com%3A6969","seeders":0,"leechers":0,"uploader":"xBSAACHRIS434x","files":1,"time":1318990575,"description":"Official new music video from Attila.            Seed and Enjoy!!\n\n\nVideo\nFormat                                   : AVC\nFormat/Info                              : Advanced Video Codec\nFormat profile                           : &lt;a class=&quot;__cf_email__&quot; href=&quot;/cdn-cgi/l/email-protection&quot; data-cfemail=&quot;b0fdd1d9def0fc839e82&quot;&gt;[email&amp;#160;protected]&lt;/a&gt;&lt;script cf-hash='f9e31' type=&quot;text/javascript&quot;&gt;\n/* &lt;![CDATA[ */!function(){try{var t=&quot;currentScript&quot;in document?document.currentScript:function(){for(var t=document.getElementsByTagName(&quot;script&quot;),e=t.length;e--;)if(t[e].getAttribute(&quot;cf-hash&quot;))return t[e]}();if(t&amp;&amp;t.previousSibling){var e,r,n,i,c=t.previousSibling,a=c.getAttribute(&quot;data-cfemail&quot;);if(a){for(e=&quot;&quot;,r=parseInt(a.substr(0,2),16),n=2;a.length-n;n+=2)i=parseInt(a.substr(n,2),16)^r,e+=String.fromCharCode(i);e=document.createTextNode(e),c.parentNode.replaceChild(e,c)}}}catch(u){}}();/* ]]&gt; */&lt;/script&gt;\nFormat settings, CABAC                   : No\nFormat settings, ReFrames                : 2 frames\nCodec ID                                 : 7\nDuration                                 : 3mn 31s\nBit rate                                 : 500 Kbps\nWidth                                    : 512 pixels\nHeight                                   : 176 pixels\nDisplay aspect ratio                     : 2.909\nFrame rate mode                          : Constant\nFrame rate                               : 30.000 fps\nColor space                              : YUV\nChroma subsampling                       : 4:2:0\nBit depth                                : 8 bits\nScan type                                : Progressive\nBits/(Pixel*Frame)                       : 0.185\nStream size                              : 12.6 MiB (88%)\nWriting library                          : x264 core 112\n\nAudio\nFormat                                   : AAC\nFormat/Info                              : Advanced Audio Codec\nFormat profile                           : LC\nCodec ID                                 : 10\nDuration                                 : 3mn 31s\nBit rate                                 : 64.0 Kbps\nChannel(s)                               : 2 channels\nChannel positions                        : Front: L R\nSampling rate                            : 32.0 KHz\nCompression mode                         : Lossy\nStream size                              : 1.62 MiB (11%)\n","torrent":{"xt":"urn:btih:832bb0d55a70130575bf749d03cef1a56f035270","amp;dn":"Attila+-+Payback+Music+Video+%5B2011%5D+FLV+-BSAA.flv","amp;tr":["udp%3A%2F%2Ftracker.openbittorrent.com%3A80","udp%3A%2F%2Fopen.demonii.com%3A1337","udp%3A%2F%2Ftracker.coppersurfer.tk%3A6969","udp%3A%2F%2Fexodus.desync.com%3A6969"],"infoHash":"832bb0d55a70130575bf749d03cef1a56f035270","infoHashBuffer":{"type":"Buffer","data":[131,43,176,213,90,112,19,5,117,191,116,157,3,206,241,165,111,3,82,112]},"announce":[],"urlList":[]}}